Wavefont-wdflt,rmax,amax.ufo
<glyph name="_2" format="2">
	<unicode hex="0102"/>
	<unicode hex="0062"/>
	<advance width="25"/>
	<outline>
		<component base="cap" yOffset="980"/>
		<component base="cap" yOffset="975"/>
		<contour>
			<point x="0" y="993" type="line"/>
			<point x="0" y="988" type="line"/>
			<point x="25" y="988" type="line"/>
			<point x="25" y="993" type="line"/>
		</contour>
	</outline>
</glyph>
<glyph name="_6" format="2">
	<unicode hex="0106"/>
	<unicode hex="0064"/>
	<advance width="25"/>
	<outline>
		<component base="cap" yOffset="940"/>
		<component base="cap" yOffset="975"/>
		<contour>
			<point x="0" y="953" type="line"/>
			<point x="0" y="988" type="line"/>
			<point x="25" y="988" type="line"/>
			<point x="25" y="953" type="line"/>
		</contour>
	</outline>
</glyph>
<glyph name="_8" format="2">
	<unicode hex="0108"/>
	<unicode hex="0065"/>
	<advance width="25"/>
	<outline>
		<component base="cap" yOffset="920"/>
		<component base="cap" yOffset="975"/>
		<contour>
			<point x="0" y="933" type="line"/>
			<point x="0" y="988" type="line"/>
			<point x="25" y="988" type="line"/>
			<point x="25" y="933" type="line"/>
		</contour>
	</outline>
</glyph>
<glyph name="_11" format="2">
	<unicode hex="010B"/>
	<advance width="25"/>
	<outline>
		<component base="cap" yOffset="890"/>
		<component base="cap" yOffset="975"/>
		<contour>
			<point x="0" y="903" type="line"/>
			<point x="0" y="988" type="line"/>
			<point x="25" y="988" type="line"/>
			<point x="25" y="903" type="line"/>
		</contour>
	</outline>
</glyph>
<glyph name="_12" format="2">
	<unicode hex="010C"/>
	<unicode hex="0067"/>
	<advance width="25"/>
	<outline>
		<component base="cap" yOffset="880"/>
		<component base="cap" yOffset="975"/>
		<contour>
			<point x="0" y="893" type="line"/>
			<point x="0" y="988" type="line"/>
			<point x="25" y="988" type="line"/>
			<point x="25" y="893" type="line"/>
		</contour>
	</outline>
</glyph>
<glyph name="_13" format="2">
	<unicode hex="010D"/>
	<advance width="25"/>
	<outline>
		<component base="cap" yOffset="870"/>
		<component base="cap" yOffset="975"/>
		<contour>
			<point x="0" y="883" type="line"/>
			<point x="0" y="988" type="line"/>
			<point x="25" y="988" type="line"/>
			<point x="25" y="883" type="line"/>
		</contour>
	</outline>
</glyph>
<glyph name="_16" format="2">
	<unicode hex="0110"/>
	<unicode hex="0069"/>
	<advance width="25"/>
	<outline>
		<component base="cap" yOffset="840"/>
		<component base="cap" yOffset="975"/>
		<contour>
			<point x="0" y="853" type="line"/>
			<point x="0" y="988" type="line"/>
			<point x="25" y="988" type="line"/>
			<point x="25" y="853" type="line"/>
		</contour>
	</outline>
</glyph>
<glyph name="_20" format="2">
	<unicode hex="0114"/>
	<unicode hex="0032"/>
	<unicode hex="006B"/>
	<advance width="25"/>
	<outline>
		<component base="cap" yOffset="800"/>
		<component base="cap" yOffset="975"/>
		<contour>
			<point x="0" y="813" type="line"/>
			<point x="0" y="988" type="line"/>
			<point x="25" y="988" type="line"/>
			<point x="25" y="813" type="line"/>
		</contour>
	</outline>
</glyph>
<glyph name="_21" format="2">
	<unicode hex="0115"/>
	<advance width="25"/>
	<outline>
		<component base="cap" yOffset="790"/>
		<component base="cap" yOffset="975"/>
		<contour>
			<point x="0" y="803" type="line"/>
			<point x="0" y="988" type="line"/>
			<point x="25" y="988" type="line"/>
			<point x="25" y="803" type="line"/>
		</contour>
	</outline>
</glyph>
<glyph name="_23" format="2">
	<unicode hex="0117"/>
	<advance width="25"/>
	<outline>
		<component base="cap" yOffset="770"/>
		<component base="cap" yOffset="975"/>
		<contour>
			<point x="0" y="783" type="line"/>
			<point x="0" y="988" type="line"/>
			<point x="25" y="988" type="line"/>
			<point x="25" y="783" type="line"/>
		</contour>
	</outline>
</glyph>
<glyph name="_25" format="2">
	<unicode hex="0119"/>
	<advance width="25"/>
	<outline>
		<component base="cap" yOffset="750"/>
		<component base="cap" yOffset="975"/>
		<contour>
			<point x="0" y="763" type="line"/>
			<point x="0" y="988" type="line"/>
			<point x="25" y="988" type="line"/>
			<point x="25" y="763" type="line"/>
		</contour>
	</outline>
</glyph>
<glyph name="_26" format="2">
	<unicode hex="011A"/>
	<unicode hex="006E"/>
	<advance width="25"/>
	<outline>
		<component base="cap" yOffset="740"/>
		<component base="cap" yOffset="975"/>
		<contour>
			<point x="0" y="753" type="line"/>
			<point x="0" y="988" type="line"/>
			<point x="25" y="988" type="line"/>
			<point x="25" y="753" type="line"/>
		</contour>
	</outline>
</glyph>
<glyph name="_27" format="2">
	<unicode hex="011B"/>
	<advance width="25"/>
	<outline>
		<component base="cap" yOffset="730"/>
		<component base="cap" yOffset="975"/>
		<contour>
			<point x="0" y="743" type="line"/>
			<point x="0" y="988" type="line"/>
			<point x="25" y="988" type="line"/>
			<point x="25" y="743" type="line"/>
		</contour>
	</outline>
</glyph>
<glyph name="_28" format="2">
	<unicode hex="011C"/>
	<unicode hex="2583"/>
	<unicode hex="006F"/>
	<advance width="25"/>
	<outline>
		<component base="cap" yOffset="720"/>
		<component base="cap" yOffset="975"/>
		<contour>
			<point x="0" y="733" type="line"/>
			<point x="0" y="988" type="line"/>
			<point x="25" y="988" type="line"/>
			<point x="25" y="733" type="line"/>
		</contour>
	</outline>
</glyph>
<glyph name="_29" format="2">
	<unicode hex="011D"/>
	<advance width="25"/>
	<outline>
		<component base="cap" yOffset="710"/>
		<component base="cap" yOffset="975"/>
		<contour>
			<point x="0" y="723" type="line"/>
			<point x="0" y="988" type="line"/>
			<point x="25" y="988" type="line"/>
			<point x="25" y="723" type="line"/>
		</contour>
	</outline>
</glyph>
<glyph name="_30" format="2">
	<unicode hex="011E"/>
	<unicode hex="0033"/>
	<unicode hex="0070"/>
	<advance width="25"/>
	<outline>
		<component base="cap" yOffset="700"/>
		<component base="cap" yOffset="975"/>
		<contour>
			<point x="0" y="713" type="line"/>
			<point x="0" y="988" type="line"/>
			<point x="25" y="988" type="line"/>
			<point x="25" y="713" type="line"/>
		</contour>
	</outline>
</glyph>
<glyph name="_31" format="2">
	<unicode hex="011F"/>
	<advance width="25"/>
	<outline>
		<component base="cap" yOffset="690"/>
		<component base="cap" yOffset="975"/>
		<contour>
			<point x="0" y="703" type="line"/>
			<point x="0" y="988" type="line"/>
			<point x="25" y="988" type="line"/>
			<point x="25" y="703" type="line"/>
		</contour>
	</outline>
</glyph>
<glyph name="_33" format="2">
	<unicode hex="0121"/>
	<advance width="25"/>
	<outline>
		<component base="cap" yOffset="670"/>
		<component base="cap" yOffset="975"/>
		<contour>
			<point x="0" y="683" type="line"/>
			<point x="0" y="988" type="line"/>
			<point x="25" y="988" type="line"/>
			<point x="25" y="683" type="line"/>
		</contour>
	</outline>
</glyph>
<glyph name="_34" format="2">
	<unicode hex="0122"/>
	<unicode hex="0072"/>
	<advance width="25"/>
	<outline>
		<component base="cap" yOffset="660"/>
		<component base="cap" yOffset="975"/>
		<contour>
			<point x="0" y="673" type="line"/>
			<point x="0" y="988" type="line"/>
			<point x="25" y="988" type="line"/>
			<point x="25" y="673" type="line"/>
		</contour>
	</outline>
</glyph>
<glyph name="_35" format="2">
	<unicode hex="0123"/>
	<advance width="25"/>
	<outline>
		<component base="cap" yOffset="650"/>
		<component base="cap" yOffset="975"/>
		<contour>
			<point x="0" y="663" type="line"/>
			<point x="0" y="988" type="line"/>
			<point x="25" y="988" type="line"/>
			<point x="25" y="663" type="line"/>
		</contour>
	</outline>
</glyph>
<glyph name="_36" format="2">
	<unicode hex="0124"/>
	<unicode hex="0073"/>
	<advance width="25"/>
	<outline>
		<component base="cap" yOffset="640"/>
		<component base="cap" yOffset="975"/>
		<contour>
			<point x="0" y="653" type="line"/>
			<point x="0" y="988" type="line"/>
			<point x="25" y="988" type="line"/>
			<point x="25" y="653" type="line"/>
		</contour>
	</outline>
</glyph>
<glyph name="_37" format="2">
	<unicode hex="0125"/>
	<advance width="25"/>
	<outline>
		<component base="cap" yOffset="630"/>
		<component base="cap" yOffset="975"/>
		<contour>
			<point x="0" y="643" type="line"/>
			<point x="0" y="988" type="line"/>
			<point x="25" y="988" type="line"/>
			<point x="25" y="643" type="line"/>
		</contour>
	</outline>
</glyph>
<glyph name="_38" format="2">
	<unicode hex="0126"/>
	<unicode hex="0074"/>
	<advance width="25"/>
	<outline>
		<component base="cap" yOffset="620"/>
		<component base="cap" yOffset="975"/>
		<contour>
			<point x="0" y="633" type="line"/>
			<point x="0" y="988" type="line"/>
			<point x="25" y="988" type="line"/>
			<point x="25" y="633" type="line"/>
		</contour>
	</outline>
</glyph>
<glyph name="_39" format="2">
	<unicode hex="0127"/>
	<advance width="25"/>
	<outline>
		<component base="cap" yOffset="610"/>
		<component base="cap" yOffset="975"/>
		<contour>
			<point x="0" y="623" type="line"/>
			<point x="0" y="988" type="line"/>
			<point x="25" y="988" type="line"/>
			<point x="25" y="623" type="line"/>
		</contour>
	</outline>
</glyph>
<glyph name="_40" format="2">
	<unicode hex="0128"/>
	<unicode hex="0034"/>
	<unicode hex="0075"/>
	<advance width="25"/>
	<outline>
		<component base="cap" yOffset="600"/>
		<component base="cap" yOffset="975"/>
		<contour>
			<point x="0" y="613" type="line"/>
			<point x="0" y="988" type="line"/>
			<point x="25" y="988" type="line"/>
			<point x="25" y="613" type="line"/>
		</contour>
	</outline>
</glyph>
<glyph name="_41" format="2">
	<unicode hex="0129"/>
	<advance width="25"/>
	<outline>
		<component base="cap" yOffset="590"/>
		<component base="cap" yOffset="975"/>
		<contour>
			<point x="0" y="603" type="line"/>
			<point x="0" y="988" type="line"/>
			<point x="25" y="988" type="line"/>
			<point x="25" y="603" type="line"/>
		</contour>
	</outline>
</glyph>
<glyph name="_42" format="2">
	<unicode hex="012A"/>
	<unicode hex="2584"/>
	<unicode hex="0076"/>
	<advance width="25"/>
	<outline>
		<component base="cap" yOffset="580"/>
		<component base="cap" yOffset="975"/>
		<contour>
			<point x="0" y="593" type="line"/>
			<point x="0" y="988" type="line"/>
			<point x="25" y="988" type="line"/>
			<point x="25" y="593" type="line"/>
		</contour>
	</outline>
</glyph>
<glyph name="_43" format="2">
	<unicode hex="012B"/>
	<advance width="25"/>
	<outline>
		<component base="cap" yOffset="570"/>
		<component base="cap" yOffset="975"/>
		<contour>
			<point x="0" y="583" type="line"/>
			<point x="0" y="988" type="line"/>
			<point x="25" y="988" type="line"/>
			<point x="25" y="583" type="line"/>
		</contour>
	</outline>
</glyph>
<glyph name="_44" format="2">
	<unicode hex="012C"/>
	<unicode hex="0077"/>
	<advance width="25"/>
	<outline>
		<component base="cap" yOffset="560"/>
		<component base="cap" yOffset="975"/>
		<contour>
			<point x="0" y="573" type="line"/>
			<point x="0" y="988" type="line"/>
			<point x="25" y="988" type="line"/>
			<point x="25" y="573" type="line"/>
		</contour>
	</outline>
</glyph>
<glyph name="_45" format="2">
	<unicode hex="012D"/>
	<advance width="25"/>
	<outline>
		<component base="cap" yOffset="550"/>
		<component base="cap" yOffset="975"/>
		<contour>
			<point x="0" y="563" type="line"/>
			<point x="0" y="988" type="line"/>
			<point x="25" y="988" type="line"/>
			<point x="25" y="563" type="line"/>
		</contour>
	</outline>
</glyph>
<glyph name="_46" format="2">
	<unicode hex="012E"/>
	<unicode hex="0078"/>
	<advance width="25"/>
	<outline>
		<component base="cap" yOffset="540"/>
		<component base="cap" yOffset="975"/>
		<contour>
			<point x="0" y="553" type="line"/>
			<point x="0" y="988" type="line"/>
			<point x="25" y="988" type="line"/>
			<point x="25" y="553" type="line"/>
		</contour>
	</outline>
</glyph>
<glyph name="_50" format="2">
	<unicode hex="0132"/>
	<unicode hex="0035"/>
	<unicode hex="007A"/>
	<advance width="25"/>
	<outline>
		<component base="cap" yOffset="500"/>
		<component base="cap" yOffset="975"/>
		<contour>
			<point x="0" y="513" type="line"/>
			<point x="0" y="988" type="line"/>
			<point x="25" y="988" type="line"/>
			<point x="25" y="513" type="line"/>
		</contour>
	</outline>
</glyph>
<glyph name="_51" format="2">
	<unicode hex="0133"/>
	<advance width="25"/>
	<outline>
		<component base="cap" yOffset="490"/>
		<component base="cap" yOffset="975"/>
		<contour>
			<point x="0" y="503" type="line"/>
			<point x="0" y="988" type="line"/>
			<point x="25" y="988" type="line"/>
			<point x="25" y="503" type="line"/>
		</contour>
	</outline>
</glyph>
<glyph name="_52" format="2">
	<unicode hex="0134"/>
	<unicode hex="0041"/>
	<advance width="25"/>
	<outline>
		<component base="cap" yOffset="480"/>
		<component base="cap" yOffset="975"/>
		<contour>
			<point x="0" y="493" type="line"/>
			<point x="0" y="988" type="line"/>
			<point x="25" y="988" type="line"/>
			<point x="25" y="493" type="line"/>
		</contour>
	</outline>
</glyph>
<glyph name="_54" format="2">
	<unicode hex="0136"/>
	<unicode hex="0042"/>
	<advance width="25"/>
	<outline>
		<component base="cap" yOffset="460"/>
		<component base="cap" yOffset="975"/>
		<contour>
			<point x="0" y="473" type="line"/>
			<point x="0" y="988" type="line"/>
			<point x="25" y="988" type="line"/>
			<point x="25" y="473" type="line"/>
		</contour>
	</outline>
</glyph>
<glyph name="_55" format="2">
	<unicode hex="0137"/>
	<advance width="25"/>
	<outline>
		<component base="cap" yOffset="450"/>
		<component base="cap" yOffset="975"/>
		<contour>
			<point x="0" y="463" type="line"/>
			<point x="0" y="988" type="line"/>
			<point x="25" y="988" type="line"/>
			<point x="25" y="463" type="line"/>
		</contour>
	</outline>
</glyph>
<glyph name="_58" format="2">
	<unicode hex="013A"/>
	<unicode hex="0044"/>
	<advance width="25"/>
	<outline>
		<component base="cap" yOffset="420"/>
		<component base="cap" yOffset="975"/>
		<contour>
			<point x="0" y="433" type="line"/>
			<point x="0" y="988" type="line"/>
			<point x="25" y="988" type="line"/>
			<point x="25" y="433" type="line"/>
		</contour>
	</outline>
</glyph>
<glyph name="_59" format="2">
	<unicode hex="013B"/>
	<advance width="25"/>
	<outline>
		<component base="cap" yOffset="410"/>
		<component base="cap" yOffset="975"/>
		<contour>
			<point x="0" y="423" type="line"/>
			<point x="0" y="988" type="line"/>
			<point x="25" y="988" type="line"/>
			<point x="25" y="423" type="line"/>
		</contour>
	</outline>
</glyph>
<glyph name="_61" format="2">
	<unicode hex="013D"/>
	<advance width="25"/>
	<outline>
		<component base="cap" yOffset="390"/>
		<component base="cap" yOffset="975"/>
		<contour>
			<point x="0" y="403" type="line"/>
			<point x="0" y="988" type="line"/>
			<point x="25" y="988" type="line"/>
			<point x="25" y="403" type="line"/>
		</contour>
	</outline>
</glyph>
<glyph name="_64" format="2">
	<unicode hex="0140"/>
	<unicode hex="0047"/>
	<advance width="25"/>
	<outline>
		<component base="cap" yOffset="360"/>
		<component base="cap" yOffset="975"/>
		<contour>
			<point x="0" y="373" type="line"/>
			<point x="0" y="988" type="line"/>
			<point x="25" y="988" type="line"/>
			<point x="25" y="373" type="line"/>
		</contour>
	</outline>
</glyph>
<glyph name="_66" format="2">
	<unicode hex="0142"/>
	<unicode hex="0048"/>
	<advance width="25"/>
	<outline>
		<component base="cap" yOffset="340"/>
		<component base="cap" yOffset="975"/>
		<contour>
			<point x="0" y="353" type="line"/>
			<point x="0" y="988" type="line"/>
			<point x="25" y="988" type="line"/>
			<point x="25" y="353" type="line"/>
		</contour>
	</outline>
</glyph>
<glyph name="_67" format="2">
	<unicode hex="0143"/>
	<advance width="25"/>
	<outline>
		<component base="cap" yOffset="330"/>
		<component base="cap" yOffset="975"/>
		<contour>
			<point x="0" y="343" type="line"/>
			<point x="0" y="988" type="line"/>
			<point x="25" y="988" type="line"/>
			<point x="25" y="343" type="line"/>
		</contour>
	</outline>
</glyph>
<glyph name="_68" format="2">
	<unicode hex="0144"/>
	<unicode hex="0049"/>
	<advance width="25"/>
	<outline>
		<component base="cap" yOffset="320"/>
		<component base="cap" yOffset="975"/>
		<contour>
			<point x="0" y="333" type="line"/>
			<point x="0" y="988" type="line"/>
			<point x="25" y="988" type="line"/>
			<point x="25" y="333" type="line"/>
		</contour>
	</outline>
</glyph>
<glyph name="_69" format="2">
	<unicode hex="0145"/>
	<advance width="25"/>
	<outline>
		<component base="cap" yOffset="310"/>
		<component base="cap" yOffset="975"/>
		<contour>
			<point x="0" y="323" type="line"/>
			<point x="0" y="988" type="line"/>
			<point x="25" y="988" type="line"/>
			<point x="25" y="323" type="line"/>
		</contour>
	</outline>
</glyph>
<glyph name="_72" format="2">
	<unicode hex="0148"/>
	<unicode hex="2586"/>
	<unicode hex="004B"/>
	<advance width="25"/>
	<outline>
		<component base="cap" yOffset="280"/>
		<component base="cap" yOffset="975"/>
		<contour>
			<point x="0" y="293" type="line"/>
			<point x="0" y="988" type="line"/>
			<point x="25" y="988" type="line"/>
			<point x="25" y="293" type="line"/>
		</contour>
	</outline>
</glyph>
<glyph name="_74" format="2">
	<unicode hex="014A"/>
	<unicode hex="004C"/>
	<advance width="25"/>
	<outline>
		<component base="cap" yOffset="260"/>
		<component base="cap" yOffset="975"/>
		<contour>
			<point x="0" y="273" type="line"/>
			<point x="0" y="988" type="line"/>
			<point x="25" y="988" type="line"/>
			<point x="25" y="273" type="line"/>
		</contour>
	</outline>
</glyph>
<glyph name="_75" format="2">
	<unicode hex="014B"/>
	<advance width="25"/>
	<outline>
		<component base="cap" yOffset="250"/>
		<component base="cap" yOffset="975"/>
		<contour>
			<point x="0" y="263" type="line"/>
			<point x="0" y="988" type="line"/>
			<point x="25" y="988" type="line"/>
			<point x="25" y="263" type="line"/>
		</contour>
	</outline>
</glyph>
<glyph name="_76" format="2">
	<unicode hex="014C"/>
	<unicode hex="004D"/>
	<advance width="25"/>
	<outline>
		<component base="cap" yOffset="240"/>
		<component base="cap" yOffset="975"/>
		<contour>
			<point x="0" y="253" type="line"/>
			<point x="0" y="988" type="line"/>
			<point x="25" y="988" type="line"/>
			<point x="25" y="253" type="line"/>
		</contour>
	</outline>
</glyph>
<glyph name="_77" format="2">
	<unicode hex="014D"/>
	<advance width="25"/>
	<outline>
		<component base="cap" yOffset="230"/>
		<component base="cap" yOffset="975"/>
		<contour>
			<point x="0" y="243" type="line"/>
			<point x="0" y="988" type="line"/>
			<point x="25" y="988" type="line"/>
			<point x="25" y="243" type="line"/>
		</contour>
	</outline>
</glyph>
<glyph name="_79" format="2">
	<unicode hex="014F"/>
	<advance width="25"/>
	<outline>
		<component base="cap" yOffset="210"/>
		<component base="cap" yOffset="975"/>
		<contour>
			<point x="0" y="223" type="line"/>
			<point x="0" y="988" type="line"/>
			<point x="25" y="988" type="line"/>
			<point x="25" y="223" type="line"/>
		</contour>
	</outline>
</glyph>
<glyph name="_82" format="2">
	<unicode hex="0152"/>
	<unicode hex="0050"/>
	<advance width="25"/>
	<outline>
		<component base="cap" yOffset="180"/>
		<component base="cap" yOffset="975"/>
		<contour>
			<point x="0" y="193" type="line"/>
			<point x="0" y="988" type="line"/>
			<point x="25" y="988" type="line"/>
			<point x="25" y="193" type="line"/>
		</contour>
	</outline>
</glyph>
<glyph name="_84" format="2">
	<unicode hex="0154"/>
	<unicode hex="0051"/>
	<advance width="25"/>
	<outline>
		<component base="cap" yOffset="160"/>
		<component base="cap" yOffset="975"/>
		<contour>
			<point x="0" y="173" type="line"/>
			<point x="0" y="988" type="line"/>
			<point x="25" y="988" type="line"/>
			<point x="25" y="173" type="line"/>
		</contour>
	</outline>
</glyph>
<glyph name="_86" format="2">
	<unicode hex="0156"/>
	<unicode hex="2587"/>
	<unicode hex="0052"/>
	<advance width="25"/>
	<outline>
		<component base="cap" yOffset="140"/>
		<component base="cap" yOffset="975"/>
		<contour>
			<point x="0" y="153" type="line"/>
			<point x="0" y="988" type="line"/>
			<point x="25" y="988" type="line"/>
			<point x="25" y="153" type="line"/>
		</contour>
	</outline>
</glyph>
<glyph name="_88" format="2">
	<unicode hex="0158"/>
	<unicode hex="0053"/>
	<advance width="25"/>
	<outline>
		<component base="cap" yOffset="120"/>
		<component base="cap" yOffset="975"/>
		<contour>
			<point x="0" y="133" type="line"/>
			<point x="0" y="988" type="line"/>
			<point x="25" y="988" type="line"/>
			<point x="25" y="133" type="line"/>
		</contour>
	</outline>
</glyph>
<glyph name="_90" format="2">
	<unicode hex="015A"/>
	<unicode hex="0039"/>
	<unicode hex="0054"/>
	<advance width="25"/>
	<outline>
		<component base="cap" yOffset="100"/>
		<component base="cap" yOffset="975"/>
		<contour>
			<point x="0" y="113" type="line"/>
			<point x="0" y="988" type="line"/>
			<point x="25" y="988" type="line"/>
			<point x="25" y="113" type="line"/>
		</contour>
	</outline>
</glyph>
<glyph name="_91" format="2">
	<unicode hex="015B"/>
	<advance width="25"/>
	<outline>
		<component base="cap" yOffset="90"/>
		<component base="cap" yOffset="975"/>
		<contour>
			<point x="0" y="103" type="line"/>
			<point x="0" y="988" type="line"/>
			<point x="25" y="988" type="line"/>
			<point x="25" y="103" type="line"/>
		</contour>
	</outline>
</glyph>
<glyph name="_92" format="2">
	<unicode hex="015C"/>
	<unicode hex="0055"/>
	<advance width="25"/>
	<outline>
		<component base="cap" yOffset="80"/>
		<component base="cap" yOffset="975"/>
		<contour>
			<point x="0" y="93" type="line"/>
			<point x="0" y="988" type="line"/>
			<point x="25" y="988" type="line"/>
			<point x="25" y="93" type="line"/>
		</contour>
	</outline>
</glyph>
<glyph name="_93" format="2">
	<unicode hex="015D"/>
	<advance width="25"/>
	<outline>
		<component base="cap" yOffset="70"/>
		<component base="cap" yOffset="975"/>
		<contour>
			<point x="0" y="83" type="line"/>
			<point x="0" y="988" type="line"/>
			<point x="25" y="988" type="line"/>
			<point x="25" y="83" type="line"/>
		</contour>
	</outline>
</glyph>
<glyph name="_94" format="2">
	<unicode hex="015E"/>
	<unicode hex="0056"/>
	<advance width="25"/>
	<outline>
		<component base="cap" yOffset="60"/>
		<component base="cap" yOffset="975"/>
		<contour>
			<point x="0" y="73" type="line"/>
			<point x="0" y="988" type="line"/>
			<point x="25" y="988" type="line"/>
			<point x="25" y="73" type="line"/>
		</contour>
	</outline>
</glyph>
<glyph name="_97" format="2">
	<unicode hex="0161"/>
	<advance width="25"/>
	<outline>
		<component base="cap" yOffset="30"/>
		<component base="cap" yOffset="975"/>
		<contour>
			<point x="0" y="43" type="line"/>
			<point x="0" y="988" type="line"/>
			<point x="25" y="988" type="line"/>
			<point x="25" y="43" type="line"/>
		</contour>
	</outline>
</glyph>
<glyph name="_98" format="2">
	<unicode hex="0162"/>
	<unicode hex="0058"/>
	<advance width="25"/>
	<outline>
		<component base="cap" yOffset="20"/>
		<component base="cap" yOffset="975"/>
		<contour>
			<point x="0" y="33" type="line"/>
			<point x="0" y="988" type="line"/>
			<point x="25" y="988" type="line"/>
			<point x="25" y="33" type="line"/>
		</contour>
	</outline>
</glyph>
<glyph name="_99" format="2">
	<unicode hex="0163"/>
	<unicode hex="0059"/>
	<advance width="25"/>
	<outline>
		<component base="cap" yOffset="10"/>
		<component base="cap" yOffset="975"/>
		<contour>
			<point x="0" y="23" type="line"/>
			<point x="0" y="988" type="line"/>
			<point x="25" y="988" type="line"/>
			<point x="25" y="23" type="line"/>
		</contour>
	</outline>
</glyph>
<glyph name="_101" format="2">
	<unicode hex="0165"/>
	<advance width="25"/>
	<outline>
		<component base="cap" yOffset="-10"/>
		<component base="cap" yOffset="975"/>
		<contour>
			<point x="0" y="3" type="line"/>
			<point x="0" y="988" type="line"/>
			<point x="25" y="988" type="line"/>
			<point x="25" y="3" type="line"/>
		</contour>
	</outline>
</glyph>
<glyph name="_102" format="2">
	<unicode hex="0166"/>
	<advance width="25"/>
	<outline>
		<component base="cap" yOffset="-20"/>
		<component base="cap" yOffset="975"/>
		<contour>
			<point x="0" y="-8" type="line"/>
			<point x="0" y="988" type="line"/>
			<point x="25" y="988" type="line"/>
			<point x="25" y="-8" type="line"/>
		</contour>
	</outline>
</glyph>
<glyph name="_104" format="2">
	<unicode hex="0168"/>
	<advance width="25"/>
	<outline>
		<component base="cap" yOffset="-40"/>
		<component base="cap" yOffset="975"/>
		<contour>
			<point x="0" y="-28" type="line"/>
			<point x="0" y="988" type="line"/>
			<point x="25" y="988" type="line"/>
			<point x="25" y="-28" type="line"/>
		</contour>
	</outline>
</glyph>
<glyph name="_105" format="2">
	<unicode hex="0169"/>
	<advance width="25"/>
	<outline>
		<component base="cap" yOffset="-50"/>
		<component base="cap" yOffset="975"/>
		<contour>
			<point x="0" y="-38" type="line"/>
			<point x="0" y="988" type="line"/>
			<point x="25" y="988" type="line"/>
			<point x="25" y="-38" type="line"/>
		</contour>
	</outline>
</glyph>
<glyph name="_106" format="2">
	<unicode hex="016A"/>
	<advance width="25"/>
	<outline>
		<component base="cap" yOffset="-60"/>
		<component base="cap" yOffset="975"/>
		<contour>
			<point x="0" y="-48" type="line"/>
			<point x="0" y="988" type="line"/>
			<point x="25" y="988" type="line"/>
			<point x="25" y="-48" type="line"/>
		</contour>
	</outline>
</glyph>
<glyph name="_107" format="2">
	<unicode hex="016B"/>
	<advance width="25"/>
	<outline>
		<component base="cap" yOffset="-70"/>
		<component base="cap" yOffset="975"/>
		<contour>
			<point x="0" y="-58" type="line"/>
			<point x="0" y="988" type="line"/>
			<point x="25" y="988" type="line"/>
			<point x="25" y="-58" type="line"/>
		</contour>
	</outline>
</glyph>
<glyph name="_108" format="2">
	<unicode hex="016C"/>
	<advance width="25"/>
	<outline>
		<component base="cap" yOffset="-80"/>
		<component base="cap" yOffset="975"/>
		<contour>
			<point x="0" y="-68" type="line"/>
			<point x="0" y="988" type="line"/>
			<point x="25" y="988" type="line"/>
			<point x="25" y="-68" type="line"/>
		</contour>
	</outline>
</glyph>
<glyph name="_109" format="2">
	<unicode hex="016D"/>
	<advance width="25"/>
	<outline>
		<component base="cap" yOffset="-90"/>
		<component base="cap" yOffset="975"/>
		<contour>
			<point x="0" y="-78" type="line"/>
			<point x="0" y="988" type="line"/>
			<point x="25" y="988" type="line"/>
			<point x="25" y="-78" type="line"/>
		</contour>
	</outline>
</glyph>
<glyph name="_110" format="2">
	<unicode hex="016E"/>
	<advance width="25"/>
	<outline>
		<component base="cap" yOffset="-100"/>
		<component base="cap" yOffset="975"/>
		<contour>
			<point x="0" y="-88" type="line"/>
			<point x="0" y="988" type="line"/>
			<point x="25" y="988" type="line"/>
			<point x="25" y="-88" type="line"/>
		</contour>
	</outline>
</glyph>
<glyph name="_111" format="2">
	<unicode hex="016F"/>
	<advance width="25"/>
	<outline>
		<component base="cap" yOffset="-110"/>
		<component base="cap" yOffset="975"/>
		<contour>
			<point x="0" y="-98" type="line"/>
			<point x="0" y="988" type="line"/>
			<point x="25" y="988" type="line"/>
			<point x="25" y="-98" type="line"/>
		</contour>
	</outline>
</glyph>
<glyph name="_112" format="2">
	<unicode hex="0170"/>
	<advance width="25"/>
	<outline>
		<component base="cap" yOffset="-120"/>
		<component base="cap" yOffset="975"/>
		<contour>
			<point x="0" y="-108" type="line"/>
			<point x="0" y="988" type="line"/>
			<point x="25" y="988" type="line"/>
			<point x="25" y="-108" type="line"/>
		</contour>
	</outline>
</glyph>
<glyph name="_115" format="2">
	<unicode hex="0173"/>
	<advance width="25"/>
	<outline>
		<component base="cap" yOffset="-150"/>
		<component base="cap" yOffset="975"/>
		<contour>
			<point x="0" y="-138" type="line"/>
			<point x="0" y="988" type="line"/>
			<point x="25" y="988" type="line"/>
			<point x="25" y="-138" type="line"/>
		</contour>
	</outline>
</glyph>
<glyph name="_117" format="2">
	<unicode hex="0175"/>
	<advance width="25"/>
	<outline>
		<component base="cap" yOffset="-170"/>
		<component base="cap" yOffset="975"/>
		<contour>
			<point x="0" y="-158" type="line"/>
			<point x="0" y="988" type="line"/>
			<point x="25" y="988" type="line"/>
			<point x="25" y="-158" type="line"/>
		</contour>
	</outline>
</glyph>
<glyph name="_118" format="2">
	<unicode hex="0176"/>
	<advance width="25"/>
	<outline>
		<component base="cap" yOffset="-180"/>
		<component base="cap" yOffset="975"/>
		<contour>
			<point x="0" y="-168" type="line"/>
			<point x="0" y="988" type="line"/>
			<point x="25" y="988" type="line"/>
			<point x="25" y="-168" type="line"/>
		</contour>
	</outline>
</glyph>
<glyph name="_122" format="2">
	<unicode hex="017A"/>
	<advance width="25"/>
	<outline>
		<component base="cap" yOffset="-220"/>
		<component base="cap" yOffset="975"/>
		<contour>
			<point x="0" y="-208" type="line"/>
			<point x="0" y="988" type="line"/>
			<point x="25" y="988" type="line"/>
			<point x="25" y="-208" type="line"/>
		</contour>
	</outline>
</glyph>
<glyph name="_123" format="2">
	<unicode hex="017B"/>
	<advance width="25"/>
	<outline>
		<component base="cap" yOffset="-230"/>
		<component base="cap" yOffset="975"/>
		<contour>
			<point x="0" y="-218" type="line"/>
			<point x="0" y="988" type="line"/>
			<point x="25" y="988" type="line"/>
			<point x="25" y="-218" type="line"/>
		</contour>
	</outline>
</glyph>
<glyph name="_125" format="2">
	<unicode hex="017D"/>
	<advance width="25"/>
	<outline>
		<component base="cap" yOffset="-250"/>
		<component base="cap" yOffset="975"/>
		<contour>
			<point x="0" y="-238" type="line"/>
			<point x="0" y="988" type="line"/>
			<point x="25" y="988" type="line"/>
			<point x="25" y="-238" type="line"/>
		</contour>
	</outline>
</glyph>
<glyph name="_1.clip" format="2">
	<advance width="25"/>
	<outline>
		<contour>
			<point x="0" y="997.75"/>
			<point x="2.25" y="1000"/>
			<point x="5" y="1000" type="curve" smooth="yes"/>
			<point x="20" y="1000" type="line"/>
			<point x="22.75" y="1000"/>
			<point x="25" y="997.75"/>
			<point x="25" y="995" type="curve" smooth="yes"/>
			<point x="25" y="995" type="line"/>
			<point x="25" y="992.25"/>
			<point x="22.75" y="990"/>
			<point x="20" y="990" type="curve" smooth="yes"/>
			<point x="5" y="990" type="line"/>
			<point x="2.25" y="990"/>
			<point x="0" y="992.25"/>
			<point x="0" y="995" type="curve" smooth="yes"/>
			<point x="0" y="995" type="line"/>
		</contour>
	</outline>
</glyph>
<glyph name="_12.clip" format="2">
	<advance width="25"/>
	<outline>
		<contour>
			<point x="0" y="973"/>
			<point x="26" y="1000"/>
			<point x="60" y="1000" type="curve" smooth="yes"/>
			<point x="-35" y="1000" type="line"/>
			<point x="-1" y="1000"/>
			<point x="25" y="973"/>
			<point x="25" y="940" type="curve" smooth="yes"/>
			<point x="25" y="940" type="line"/>
			<point x="25" y="907"/>
			<point x="-1" y="880"/>
			<point x="-35" y="880" type="curve" smooth="yes"/>
			<point x="60" y="880" type="line"/>
			<point x="26" y="880"/>
			<point x="0" y="907"/>
			<point x="0" y="940" type="curve" smooth="yes"/>
			<point x="0" y="940" type="line"/>
		</contour>
	</outline>
</glyph>
<glyph name="_16.clip" format="2">
	<advance width="25"/>
	<outline>
		<contour>
			<point x="0" y="964"/>
			<point x="36" y="1000"/>
			<point x="80" y="1000" type="curve" smooth="yes"/>
			<point x="-55" y="1000" type="line"/>
			<point x="-11" y="1000"/>
			<point x="25" y="964"/>
			<point x="25" y="920" type="curve" smooth="yes"/>
			<point x="25" y="920" type="line"/>
			<point x="25" y="876"/>
			<point x="-11" y="840"/>
			<point x="-55" y="840" type="curve" smooth="yes"/>
			<point x="80" y="840" type="line"/>
			<point x="36" y="840"/>
			<point x="0" y="876"/>
			<point x="0" y="920" type="curve" smooth="yes"/>
			<point x="0" y="920" type="line"/>
		</contour>
	</outline>
</glyph>
<glyph name="_17.clip" format="2">
	<advance width="25"/>
	<outline>
		<contour>
			<point x="0" y="961.75"/>
			<point x="38.25" y="1000"/>
			<point x="85" y="1000" type="curve" smooth="yes"/>
			<point x="-60" y="1000" type="line"/>
			<point x="-13.25" y="1000"/>
			<point x="25" y="961.75"/>
			<point x="25" y="915" type="curve" smooth="yes"/>
			<point x="25" y="915" type="line"/>
			<point x="25" y="868.25"/>
			<point x="-13.25" y="830"/>
			<point x="-60" y="830" type="curve" smooth="yes"/>
			<point x="85" y="830" type="line"/>
			<point x="38.25" y="830"/>
			<point x="0" y="868.25"/>
			<point x="0" y="915" type="curve" smooth="yes"/>
			<point x="0" y="915" type="line"/>
		</contour>
	</outline>
</glyph>
<glyph name="_2.clip" format="2">
	<advance width="25"/>
	<outline>
		<contour>
			<point x="0" y="995.5"/>
			<point x="4.5" y="1000"/>
			<point x="10" y="1000" type="curve" smooth="yes"/>
			<point x="15" y="1000" type="line"/>
			<point x="20.5" y="1000"/>
			<point x="25" y="995.5"/>
			<point x="25" y="990" type="curve" smooth="yes"/>
			<point x="25" y="990" type="line"/>
			<point x="25" y="984.5"/>
			<point x="20.5" y="980"/>
			<point x="15" y="980" type="curve" smooth="yes"/>
			<point x="10" y="980" type="line"/>
			<point x="4.5" y="980"/>
			<point x="0" y="984.5"/>
			<point x="0" y="990" type="curve" smooth="yes"/>
			<point x="0" y="990" type="line"/>
		</contour>
	</outline>
</glyph>
<glyph name="_22.clip" format="2">
	<advance width="25"/>
	<outline>
		<contour>
			<point x="0" y="950.5"/>
			<point x="49.5" y="1000"/>
			<point x="110" y="1000" type="curve" smooth="yes"/>
			<point x="-85" y="1000" type="line"/>
			<point x="-24.5" y="1000"/>
			<point x="25" y="950.5"/>
			<point x="25" y="890" type="curve" smooth="yes"/>
			<point x="25" y="890" type="line"/>
			<point x="25" y="829.5"/>
			<point x="-24.5" y="780"/>
			<point x="-85" y="780" type="curve" smooth="yes"/>
			<point x="110" y="780" type="line"/>
			<point x="49.5" y="780"/>
			<point x="0" y="829.5"/>
			<point x="0" y="890" type="curve" smooth="yes"/>
			<point x="0" y="890" type="line"/>
		</contour>
	</outline>
</glyph>
<glyph name="_23.clip" format="2">
	<advance width="25"/>
	<outline>
		<contour>
			<point x="0" y="948.25"/>
			<point x="51.75" y="1000"/>
			<point x="115" y="1000" type="curve" smooth="yes"/>
			<point x="-90" y="1000" type="line"/>
			<point x="-26.75" y="1000"/>
			<point x="25" y="948.25"/>
			<point x="25" y="885" type="curve" smooth="yes"/>
			<point x="25" y="885" type="line"/>
			<point x="25" y="821.75"/>
			<point x="-26.75" y="770"/>
			<point x="-90" y="770" type="curve" smooth="yes"/>
			<point x="115" y="770" type="line"/>
			<point x="51.75" y="770"/>
			<point x="0" y="821.75"/>
			<point x="0" y="885" type="curve" smooth="yes"/>
			<point x="0" y="885" type="line"/>
		</contour>
	</outline>
</glyph>
<glyph name="_5.clip" format="2">
	<advance width="25"/>
	<outline>
		<contour>
			<point x="0" y="988.75"/>
			<point x="11.25" y="1000"/>
			<point x="25" y="1000" type="curve" smooth="yes"/>
			<point x="0" y="1000" type="line"/>
			<point x="13.75" y="1000"/>
			<point x="25" y="988.75"/>
			<point x="25" y="975" type="curve" smooth="yes"/>
			<point x="25" y="975" type="line"/>
			<point x="25" y="961.25"/>
			<point x="13.75" y="950"/>
			<point x="0" y="950" type="curve" smooth="yes"/>
			<point x="25" y="950" type="line"/>
			<point x="11.25" y="950"/>
			<point x="0" y="961.25"/>
			<point x="0" y="975" type="curve" smooth="yes"/>
			<point x="0" y="975" type="line"/>
		</contour>
	</outline>
</glyph>
<glyph name="_8.clip" format="2">
	<advance width="25"/>
	<outline>
		<contour>
			<point x="0" y="982"/>
			<point x="18" y="1000"/>
			<point x="40" y="1000" type="curve" smooth="yes"/>
			<point x="-15" y="1000" type="line"/>
			<point x="7" y="1000"/>
			<point x="25" y="982"/>
			<point x="25" y="960" type="curve" smooth="yes"/>
			<point x="25" y="960" type="line"/>
			<point x="25" y="938"/>
			<point x="7" y="920"/>
			<point x="-15" y="920" type="curve" smooth="yes"/>
			<point x="40" y="920" type="line"/>
			<point x="18" y="920"/>
			<point x="0" y="938"/>
			<point x="0" y="960" type="curve" smooth="yes"/>
			<point x="0" y="960" type="line"/>
		</contour>
	</outline>
</glyph>
<glyph name="cap" format="2">
	<outline>
		<contour>
			<point x="0" y="19.375"/>
			<point x="5.625" y="25"/>
			<point x="12.5" y="25" type="curve" smooth="yes"/>
			<point x="12.5" y="25" type="line"/>
			<point x="19.375" y="25"/>
			<point x="25" y="19.375"/>
			<point x="25" y="12.5" type="curve" smooth="yes"/>
			<point x="25" y="12.5" type="line"/>
			<point x="25" y="5.625"/>
			<point x="19.375" y="0"/>
			<point x="12.5" y="0" type="curve" smooth="yes"/>
			<point x="12.5" y="0" type="line"/>
			<point x="5.625" y="0"/>
			<point x="0" y="5.625"/>
			<point x="0" y="12.5" type="curve" smooth="yes"/>
			<point x="0" y="12.5" type="line"/>
		</contour>
	</outline>
</glyph>
